<?xml version="1.0" encoding="UTF-8" standalone="no"?>
<!-- Created with Inkscape (http://www.inkscape.org/) -->

<svg
   xmlns:dc="http://purl.org/dc/elements/1.1/"
   xmlns:cc="http://creativecommons.org/ns#"
   xmlns:rdf="http://www.w3.org/1999/02/22-rdf-syntax-ns#"
   xmlns:svg="http://www.w3.org/2000/svg"
   xmlns="http://www.w3.org/2000/svg"
   xmlns:sodipodi="http://sodipodi.sourceforge.net/DTD/sodipodi-0.dtd"
   xmlns:inkscape="http://www.inkscape.org/namespaces/inkscape"
   id="svg2"
   version="1.1"
   inkscape:version="0.91 r13725"
   xml:space="preserve"
   width="364.21249"
   height="388.26251"
   viewBox="0 0 364.21249 388.26251"
   sodipodi:docname="T3.svg"><metadata
     id="metadata8"><rdf:RDF><cc:Work
         rdf:about=""><dc:format>image/svg+xml</dc:format><dc:type
           rdf:resource="http://purl.org/dc/dcmitype/StillImage" /><dc:title></dc:title></cc:Work></rdf:RDF></metadata><defs
     id="defs6" /><sodipodi:namedview
     pagecolor="#ffffff"
     bordercolor="#666666"
     borderopacity="1"
     objecttolerance="10"
     gridtolerance="10"
     guidetolerance="10"
     inkscape:pageopacity="0"
     inkscape:pageshadow="2"
     inkscape:window-width="707"
     inkscape:window-height="480"
     id="namedview4"
     showgrid="false"
     inkscape:zoom="0.60783617"
     inkscape:cx="182.10625"
     inkscape:cy="194.13126"
     inkscape:window-x="0"
     inkscape:window-y="0"
     inkscape:window-maximized="0"
     inkscape:current-layer="g10" /><g
     id="g10"
     inkscape:groupmode="layer"
     inkscape:label="ink_ext_XXXXXX"
     transform="matrix(1.25,0,0,-1.25,0,388.2625)"><g
       id="g12"
       transform="scale(0.1,0.1)"><path
         d="m 0,0 2913.7,0 0,3106.1 L 0,3106.1 0,0 Z"
         style="fill:#713907;fill-opacity:1;fill-rule:nonzero;stroke:none"
         id="path14"
         inkscape:connector-curvature="0" /><path
         d="m 640.43,2367.09 363.73,274 -363.305,0 -363.73,-274 363.305,0"
         style="fill:#ffffff;fill-opacity:1;fill-rule:nonzero;stroke:none"
         id="path16"
         inkscape:connector-curvature="0" /><path
         d="m 2066.69,2367.09 -607.99,457.99 -607.985,-457.99 1215.975,0"
         style="fill:#ffffff;fill-opacity:1;fill-rule:nonzero;stroke:none"
         id="path18"
         inkscape:connector-curvature="0" /><path
         d="m 2276.98,2367.09 -363.74,274 363.31,0 363.73,-274 -363.3,0"
         style="fill:#ffffff;fill-opacity:1;fill-rule:nonzero;stroke:none"
         id="path20"
         inkscape:connector-curvature="0" /><path
         d="m 277.125,277.121 2363.16,0 0,1947.47 -2363.16,0 0,-1947.47 z"
         style="fill:#ffffff;fill-opacity:1;fill-rule:nonzero;stroke:none"
         id="path22"
         inkscape:connector-curvature="0" /><path
         d="m 500.719,1503.1 227.992,0 0,543.988 -227.992,0 0,-543.988 z"
         style="fill:#713907;fill-opacity:1;fill-rule:nonzero;stroke:none"
         id="path24"
         inkscape:connector-curvature="0" /><path
         d="m 500.719,593.121 227.992,0 0,589.988 -227.992,0 0,-589.988 z"
         style="fill:#713907;fill-opacity:1;fill-rule:nonzero;stroke:none"
         id="path26"
         inkscape:connector-curvature="0" /><path
         d="m 1004.71,593.121 90,0 0,589.988 -90,0 0,-589.988 z"
         style="fill:#713907;fill-opacity:1;fill-rule:nonzero;stroke:none"
         id="path28"
         inkscape:connector-curvature="0" /><path
         d="m 922.711,1503.1 228,0 0,543.988 -228,0 0,-543.988 z"
         style="fill:#713907;fill-opacity:1;fill-rule:nonzero;stroke:none"
         id="path30"
         inkscape:connector-curvature="0" /><path
         d="m 2188.69,1503.1 227.988,0 0,543.988 -227.988,0 0,-543.988 z"
         style="fill:#713907;fill-opacity:1;fill-rule:nonzero;stroke:none"
         id="path32"
         inkscape:connector-curvature="0" /><path
         d="m 2188.69,593.121 227.988,0 0,589.988 -227.988,0 0,-589.988 z"
         style="fill:#713907;fill-opacity:1;fill-rule:nonzero;stroke:none"
         id="path34"
         inkscape:connector-curvature="0" /><path
         d="m 1822.7,593.121 90,0 0,589.988 -90,0 0,-589.988 z"
         style="fill:#713907;fill-opacity:1;fill-rule:nonzero;stroke:none"
         id="path36"
         inkscape:connector-curvature="0" /><path
         d="m 1186.7,593.121 544,0 0,589.988 -544,0 0,-589.988 z"
         style="fill:#713907;fill-opacity:1;fill-rule:nonzero;stroke:none"
         id="path38"
         inkscape:connector-curvature="0" /><path
         d="m 1766.69,1503.1 228,0 0,543.988 -228,0 0,-543.988 z"
         style="fill:#713907;fill-opacity:1;fill-rule:nonzero;stroke:none"
         id="path40"
         inkscape:connector-curvature="0" /><path
         d="m 1342.71,1503.1 231.988,0 0,543.988 -231.988,0 0,-543.988 z"
         style="fill:#713907;fill-opacity:1;fill-rule:nonzero;stroke:none"
         id="path42"
         inkscape:connector-curvature="0" /><path
         d="m 1008.71,417.121 899.988,0 0,88 -899.988,0 0,-88 z"
         style="fill:#713907;fill-opacity:1;fill-rule:nonzero;stroke:none"
         id="path44"
         inkscape:connector-curvature="0" /><path
         d="m 1904.69,1277.11 -445.99,137.99 -445.99,-137.99 891.98,0"
         style="fill:#713907;fill-opacity:1;fill-rule:nonzero;stroke:none"
         id="path46"
         inkscape:connector-curvature="0" /></g></g></svg>